# xmcd
#
# Track frame offsets: 
#        300
#        23208
#        43497
#        64103
#        86977
#
# Disc length: 1477 seconds
#
# Revision: 0
# Processed by: cddbd v1.5.2PL0 Copyright (c) Steve Scherf et al.
# Submitted via: ExactAudioCopy v0.99pb5
#
DISCID=4605c105
DTITLE=Bronco Bob - Hot Buttered Blues
DYEAR=2006
DGENRE=General Blues
TTITLE0=Got A Way With Women
TTITLE1=Polk Sally Annie
TTITLE2=Leave Your Hat On
TTITLE3=My Heart Bleeds Blue
TTITLE4=Living In America
EXTD=
EXTT0=
EXTT1=
EXTT2=
EXTT3=
EXTT4=
PLAYORDER=
